<svg id="Layer_1" height="512" viewBox="0 0 48 48" width="512" xmlns="http://www.w3.org/2000/svg" data-name="Layer 1"><path d="m39 6h-9v-1a3 3 0 0 0 -3-3h-7a3 3 0 0 0 -3 3v1h-8a3 3 0 0 0 -3 3v1a3 3 0 0 0 3 3h30a3 3 0 0 0 3-3v-1a3 3 0 0 0 -3-3zm-20 0v-1a1 1 0 0 1 1-1h7a1 1 0 0 1 1 1v1z"/><path d="m39 15h-30a5.029 5.029 0 0 1 -.941-.1l.82 26.251a4.977 4.977 0 0 0 5 4.844h20.244a4.977 4.977 0 0 0 5-4.844l.82-26.251a5.029 5.029 0 0 1 -.943.1zm-21.472 25h-.028a1 1 0 0 1 -1-.972l-.5-18a1 1 0 0 1 2-.056l.5 18a1 1 0 0 1 -.972 1.028zm7.472-1a1 1 0 0 1 -2 0v-18a1 1 0 0 1 2 0zm6.5.028a1 1 0 0 1 -1 .972h-.028a1 1 0 0 1 -.972-1.028l.5-18a.972.972 0 0 1 1.028-.972 1 1 0 0 1 .972 1.028z"/></svg>